<svg viewBox="0 0 20 20" xmlns="http://www.w3.org/2000/svg">
<path d="M14 10H6C5.45614 10 5 10.4561 5 11C5 11.5439 5.45614 12 6 12H14C14.5439 12 15 11.5439 15 11C15 10.4561 14.5439 10 14 10ZM10 14H6C5.45614 14 5 14.4561 5 15C5 15.5439 5.45614 16 6 16H10C10.5439 16 11 15.5439 11 15C11 14.4561 10.5439 14 10 14ZM15 4C16.2632 4 17 4.73684 17 6H3C3 4.73684 3.73684 4 5 4H15ZM15 2H5C2.75439 2 1 3.75439 1 6V8H19V6C19 3.75439 17.2456 2 15 2ZM3 8H17V16C17 17.2632 16.2632 18 15 18H5C3.73684 18 3 17.2632 3 16V8ZM1 6V16C1 18.2456 2.75439 20 5 20H15C17.2456 20 19 18.2456 19 16V6H1ZM4 0.999999V3C4 3.54386 4.45614 4 5 4C5.54386 4 6 3.54386 6 3V0.999999C6 0.45614 5.54386 0 5 0C4.45614 0 4 0.45614 4 0.999999ZM16 3V0.999999C16 0.45614 15.5439 0 15 0C14.4561 0 14 0.45614 14 0.999999V3C14 3.54386 14.4561 4 15 4C15.5439 4 16 3.54386 16 3Z" />
<path d="M14 10H6C5.45614 10 5 10.4561 5 11C5 11.5439 5.45614 12 6 12H14C14.5439 12 15 11.5439 15 11C15 10.4561 14.5439 10 14 10ZM10 14H6C5.45614 14 5 14.4561 5 15C5 15.5439 5.45614 16 6 16H10C10.5439 16 11 15.5439 11 15C11 14.4561 10.5439 14 10 14ZM15 4C16.2632 4 17 4.73684 17 6H3C3 4.73684 3.73684 4 5 4H15ZM15 2H5C2.75439 2 1 3.75439 1 6V8H19V6C19 3.75439 17.2456 2 15 2ZM3 8H17V16C17 17.2632 16.2632 18 15 18H5C3.73684 18 3 17.2632 3 16V8ZM1 6V16C1 18.2456 2.75439 20 5 20H15C17.2456 20 19 18.2456 19 16V6H1ZM4 0.999999V3C4 3.54386 4.45614 4 5 4C5.54386 4 6 3.54386 6 3V0.999999C6 0.45614 5.54386 0 5 0C4.45614 0 4 0.45614 4 0.999999ZM16 3V0.999999C16 0.45614 15.5439 0 15 0C14.4561 0 14 0.45614 14 0.999999V3C14 3.54386 14.4561 4 15 4C15.5439 4 16 3.54386 16 3Z" />
<path d="M14 10H6C5.45614 10 5 10.4561 5 11C5 11.5439 5.45614 12 6 12H14C14.5439 12 15 11.5439 15 11C15 10.4561 14.5439 10 14 10ZM10 14H6C5.45614 14 5 14.4561 5 15C5 15.5439 5.45614 16 6 16H10C10.5439 16 11 15.5439 11 15C11 14.4561 10.5439 14 10 14ZM15 4C16.2632 4 17 4.73684 17 6H3C3 4.73684 3.73684 4 5 4H15ZM15 2H5C2.75439 2 1 3.75439 1 6V8H19V6C19 3.75439 17.2456 2 15 2ZM3 8H17V16C17 17.2632 16.2632 18 15 18H5C3.73684 18 3 17.2632 3 16V8ZM1 6V16C1 18.2456 2.75439 20 5 20H15C17.2456 20 19 18.2456 19 16V6H1ZM4 0.999999V3C4 3.54386 4.45614 4 5 4C5.54386 4 6 3.54386 6 3V0.999999C6 0.45614 5.54386 0 5 0C4.45614 0 4 0.45614 4 0.999999ZM16 3V0.999999C16 0.45614 15.5439 0 15 0C14.4561 0 14 0.45614 14 0.999999V3C14 3.54386 14.4561 4 15 4C15.5439 4 16 3.54386 16 3Z" />
</svg>
