<svg viewBox="0 0 24 24" xmlns="http://www.w3.org/2000/svg">
  <path d="M10.0016 7.99348V11.8897C10.0016 12.2232 10.1244 12.5391 10.37 12.7672L13.2998 15.6982C13.4753 15.8912 13.7209 15.9965 14.0016 15.9965C14.5455 15.9965 15.0016 15.5402 15.0016 14.9961C15.0016 14.7153 14.8963 14.4696 14.7033 14.2941L11.7735 11.3632C11.7209 11.3105 12.0016 11.8019 12.0016 11.8897V7.99348C12.0016 7.44942 11.5455 6.99311 11.0016 6.99311C10.4577 6.99311 10.0016 7.44942 10.0016 7.99348ZM20.0016 14.9961V11.995C20.0016 10.0293 19.3525 8.08124 18.1419 6.50169C16.949 4.9397 15.2297 3.81646 13.3349 3.3075C11.4226 2.79853 9.38756 2.92139 7.54545 3.67606C5.73843 4.43073 4.19457 5.78212 3.21212 7.50207C2.21212 9.22202 1.82615 11.2228 2.07177 13.1709C2.33492 15.1365 3.24721 16.9618 4.65071 18.3483C6.03668 19.7523 7.86124 20.6649 9.82615 20.9282C11.7735 21.1739 13.7735 20.7878 15.4928 19.7874C15.7911 19.6295 16.0016 19.296 16.0016 18.9274C16.0016 18.3834 15.5455 17.9271 15.0016 17.9271C14.8262 17.9271 14.6507 17.9797 14.5104 18.0675C13.1244 18.8572 11.6683 19.1381 10.0718 18.9274C8.51036 18.7344 7.19457 18.0675 6.05422 16.9442C4.93142 15.8035 4.26475 14.4872 4.07177 12.9252C3.86124 11.3281 4.14194 9.87139 4.93142 8.4849C5.73843 7.11596 6.8437 6.13313 8.31738 5.53641C9.79107 4.9046 11.2647 4.81684 12.8086 5.23806C14.3525 5.65927 15.5981 6.46659 16.563 7.73023C17.5279 8.99386 18.0016 10.3979 18.0016 11.995V14.9961C18.0016 15.5402 18.4577 15.9965 19.0016 15.9965C19.5455 15.9965 20.0016 15.5402 20.0016 14.9961ZM20.2998 12.2934L18.4051 14.1888C18.177 14.417 19.8262 14.417 19.5981 14.1888L17.7033 12.2934C17.5279 12.1003 17.2823 11.995 17.0016 11.995C16.4577 11.995 16.0016 12.4513 16.0016 12.9954C16.0016 13.2762 16.1069 13.5219 16.2998 13.6974L18.1946 15.5929C18.6332 16.0492 19.37 16.0492 19.8086 15.5929L21.7033 13.6974C21.8963 13.5219 22.0016 13.2762 22.0016 12.9954C22.0016 12.4513 21.5455 11.995 21.0016 11.995C20.7209 11.995 20.4753 12.1003 20.2998 12.2934Z" />
</svg>
