<svg viewBox="0 0 24 25" xmlns="http://www.w3.org/2000/svg">
  <path fill-rule="evenodd" clip-rule="evenodd" d="M23.9962 19.7896C23.9191 21.2971 22.6583 22.5002 21.12 22.5002H2.88C1.29216 22.5002 0 21.2183 0 19.6431V19.6429V10.1193V5.35714C0 3.7819 1.29216 2.5 2.88 2.5H7.25664C8.49792 2.5 9.59616 3.28476 9.9888 4.45333L10.0742 4.70667C10.1376 4.89613 10.2596 5.06097 10.4228 5.17774C10.586 5.29452 10.7821 5.35729 10.9834 5.35714H21.12C22.7078 5.35714 24 6.63905 24 8.21428V10.1193V19.6429M22.08 9.16688V8.21428C22.08 7.68952 21.6499 7.2619 21.12 7.2619H10.9834C10.3788 7.26249 9.78943 7.07408 9.29897 6.72343C8.8085 6.37277 8.44189 5.87771 8.2512 5.30857L8.16576 5.05524C8.10238 4.86577 7.98043 4.70094 7.81722 4.58416C7.65402 4.46739 7.45786 4.40461 7.25664 4.40476H2.88C2.35008 4.40476 1.92 4.83238 1.92 5.35714V9.16688H22.08ZM22.08 11.0716H1.92V19.6429M22.08 11.0716V19.6429C22.08 19.647 22.08 19.651 22.0799 19.6551C22.0797 19.6712 22.0791 19.6872 22.0781 19.7031C22.0467 20.2 21.6295 20.5952 21.12 20.5952H2.88C2.36664 20.5952 1.94698 20.1939 1.92125 19.6918C1.92042 19.6756 1.92 19.6594 1.92 19.6431M24 19.6431C24 19.6922 23.9987 19.7411 23.9962 19.7896L24 19.6431Z"/>
</svg>
