<svg viewBox="0 0 24 25" xmlns="http://www.w3.org/2000/svg">
  <path d="M12 20.5C7.45614 20.5 4 17.0439 4 12.5C4 7.95614 7.45614 4.5 12 4.5C16.5439 4.5 20 7.95614 20 12.5C20 17.0439 16.5439 20.5 12 20.5ZM12 22.5C17.5263 22.5 22 18.0263 22 12.5C22 6.97368 17.5263 2.5 12 2.5C6.47368 2.5 2 6.97368 2 12.5C2 18.0263 6.47368 22.5 12 22.5ZM11 7.5V12.3947C11 12.7281 11.1228 13.0439 11.3684 13.2719L14.9649 16.8684C15.1404 17.0614 15.386 17.1667 15.6667 17.1667C16.2105 17.1667 16.6667 16.7105 16.6667 16.1667C16.6667 15.886 16.5614 15.6404 16.3684 15.4649L12.7719 11.8684C12.7193 11.8158 13 12.307 13 12.3947V7.5C13 6.95614 12.5439 6.5 12 6.5C11.4561 6.5 11 6.95614 11 7.5Z"/>
</svg>
