<svg viewBox="0 0 24 24" xmlns="http://www.w3.org/2000/svg">
  <path d="M5.93824 6.60479C5.93824 5.93704 6.44809 5.39573 7.07703 5.39573H16.9228C17.5518 5.39573 18.0616 5.93704 18.0616 6.60479C18.0616 7.27253 17.5518 7.81385 16.9228 7.81385H7.07703C6.44809 7.81385 5.93824 7.27253 5.93824 6.60479Z"/>
  <path d="M4.56227 0C3.14717 0 2 1.21796 2 2.72038V21.2796C2 22.782 3.14717 24 4.56227 24H19.4377C20.8528 24 22 22.782 22 21.2796V2.72038C22 1.21795 20.8528 0 19.4377 0H4.56227ZM4 2.72038C4 2.2 4.3 2 4.56227 2H19.4377C19.8 2 20 2.2 20 2.72038V21.2796C20 21.7 19.7 21.9 19.4377 21.9H4.56227C4.16486 21.9 4 21.7 4 21.2796V2.72038Z"/>
  <path d="M8.94108 12C8.1848 12 7.59659 12.4673 7.26046 13.0117C6.92434 13.5562 6.84031 14.2559 6.84031 15.0336C6.84031 15.5003 7.00903 15.9661 7.09306 16.4327C6.97913 16.4591 6.86512 16.5034 6.74782 16.5504C6.34909 16.7102 6 17.0924 6 17.5219C6 17.9515 6.3495 18.3053 6.776 18.2541C7.09389 18.2159 7.40025 18.1538 7.68062 18.0673C7.76465 18.2228 7.7653 18.3006 7.93337 18.4562C8.26949 18.7673 8.77302 19 9.36123 19C10.7057 19 11.5467 18.1441 12.1349 17.5219C12.2189 17.3664 12.302 17.2883 12.386 17.2105C12.386 17.2883 12.3857 17.3667 12.4697 17.4444C12.5537 17.6 12.6381 17.7553 12.8062 17.9108C12.9742 18.0664 13.3107 18.2222 13.5628 18.2222C14.067 18.2222 14.4024 17.9114 14.5705 17.7559C14.7386 17.6003 14.9079 17.3661 15.076 17.2105C15.1598 17.133 15.2383 17.0603 15.3142 16.9949C15.6396 16.7144 16 16.3184 16 15.8889C16 15.4593 15.6449 15.1004 15.2324 15.2203C14.604 15.4028 14.121 15.7835 13.8155 16.1228C13.8155 16.0451 13.8142 15.9667 13.7302 15.8889C13.6462 15.7333 13.5634 15.5784 13.3954 15.3451C13.2273 15.1117 12.9746 15.1111 12.7225 15.1111C12.0502 15.1111 11.7978 15.5006 11.5457 15.7339C11.2936 15.9673 11.0425 16.2781 10.8744 16.5892C10.3703 17.1336 10.0335 17.4444 9.36123 17.4444C9.2772 17.4444 9.27786 17.367 9.19383 17.367C9.27786 17.367 9.2772 17.2895 9.36123 17.2895C10.2856 16.5895 11.0419 15.6553 11.0419 14.4108C11.0419 13.7886 10.8741 13.2444 10.538 12.7778C10.2019 12.3111 9.61333 12 8.94108 12ZM8.85738 13.5556C9.10947 13.5556 9.1098 13.5549 9.19383 13.7105C9.27786 13.8661 9.36123 14.0994 9.36123 14.4883C9.36123 14.9549 9.10849 15.4225 8.68833 15.8114C8.68833 15.5781 8.52093 15.2667 8.52093 15.1111C8.52093 14.4889 8.60561 14.0228 8.77367 13.7895C8.85771 13.6339 8.85738 13.5556 8.85738 13.5556Z"/>
</svg>
