<svg viewBox="0 0 24 25" xmlns="http://www.w3.org/2000/svg">
  <path d="M4.56227 0.5C3.14717 0.5 2 1.71796 2 3.22038V21.7796C2 23.282 3.14717 24.5 4.56227 24.5H19.4377C20.8528 24.5 22 23.282 22 21.7796V3.22038C22 1.71795 20.8528 0.5 19.4377 0.5H4.56227ZM4 3.22038C4 2.7 4.3 2.5 4.56227 2.5H19.4377C19.8 2.5 20 2.7 20 3.22038V21.7796C20 22.2 19.7 22.4 19.4377 22.4H4.56227C4.16486 22.4 4 22.2 4 21.7796V3.22038ZM7.07703 11.2916C6.44809 11.2916 5.93824 11.8329 5.93824 12.5007V16.3848C5.93824 17.8873 7.0854 19.1052 8.50051 19.1052H15.4993C16.9144 19.1052 18.0616 17.8873 18.0616 16.3848V12.5007C18.0616 11.8329 17.5518 11.2916 16.9228 11.2916H7.07703ZM8.21581 16.3848V13.7097H15.784V16.3848C15.784 16.5518 15.6566 16.6871 15.4993 16.6871H8.50051C8.34327 16.6871 8.21581 16.5518 8.21581 16.3848ZM5.93824 7.10479C5.93824 6.43704 6.44809 5.89573 7.07703 5.89573H16.9228C17.5518 5.89573 18.0616 6.43704 18.0616 7.10479C18.0616 7.77253 17.5518 8.31385 16.9228 8.31385H7.07703C6.44809 8.31385 5.93824 7.77253 5.93824 7.10479Z"/>
</svg>
