<svg viewBox="0 0 24 25" xmlns="http://www.w3.org/2000/svg">
  <path d="M12 20.5C7.45614 20.5 4 17.0439 4 12.5C4 7.95614 7.45614 4.5 12 4.5C16.5439 4.5 20 7.95614 20 12.5C20 17.0439 16.5439 20.5 12 20.5ZM12 22.5C17.5263 22.5 22 18.0263 22 12.5C22 6.97368 17.5263 2.5 12 2.5C6.47368 2.5 2 6.97368 2 12.5C2 18.0263 6.47368 22.5 12 22.5ZM8.28947 8.78947C7.89706 9.18189 7.89706 9.81811 8.28947 10.2105L14.2895 16.2105C14.6819 16.6029 15.3181 16.6029 15.7105 16.2105C16.1029 15.8181 16.1029 15.1819 15.7105 14.7895L9.71053 8.78947C9.31811 8.39706 8.68189 8.39706 8.28947 8.78947ZM15.7105 8.78947C15.3181 8.39706 14.6819 8.39706 14.2895 8.78947L8.28947 14.7895C7.89706 15.1819 7.89706 15.8181 8.28947 16.2105C8.68189 16.6029 9.31811 16.6029 9.71053 16.2105L15.7105 10.2105C16.1029 9.81811 16.1029 9.18189 15.7105 8.78947Z"/>
</svg>
